<svg aria-hidden="true" style="position: absolute; width: 0; height: 0; overflow: hidden;" version="1.1" xmlns="http://www.w3.org/2000/svg" xmlns:xlink="http://www.w3.org/1999/xlink">
<defs>
<symbol id="arrow-down-red" viewBox="0 0 72 32">
<path fill="#ee144e" style="fill: var(--color1, #ee144e)" d="M11.76 0h48.8c3.36 0 5.041 4.080 2.641 6.472l-24.32 24.416c-1.52 1.48-3.919 1.48-5.439 0l-24.32-24.416c-2.4-2.392-0.72-6.472 2.64-6.472z"></path>
</symbol>
<symbol id="arrow-left-blue" viewBox="0 0 64 32">
<path fill="#058dc7" style="fill: var(--color2, #058dc7)" d="M19.093 21.712h41.707c0.907 0 1.653-0.768 1.653-1.712v-7.995c0-0.949-0.747-1.717-1.653-1.717h-41.707v-6.576c0-3.051-3.573-4.581-5.653-2.421l-11.893 12.288c-1.333 1.339-1.333 3.504 0 4.843l11.893 12.288c2.080 2.16 5.653 0.629 5.653-2.421v-6.576z"></path>
</symbol>
<symbol id="arrow-right-gray" viewBox="0 0 19 32">
<path fill="#707478" style="fill: var(--color3, #707478)" d="M17.558 17.119l-12.022 12.817c-0.579 0.618-1.52 0.618-2.099 0l-1.402-1.495c-0.579-0.617-0.579-1.617-0.003-2.236l9.53-10.206-9.53-10.206c-0.576-0.619-0.576-1.619 0.003-2.236l1.402-1.495c0.579-0.618 1.52-0.618 2.099 0l12.022 12.817c0.579 0.618 0.579 1.62 0 2.239z"></path>
</symbol>
<symbol id="arrow-up-green" viewBox="0 0 72 32">
<path fill="#00983e" style="fill: var(--color4, #00983e)" d="M60.559 32h-48.8c-3.36 0-5.040-4.088-2.64-6.48l24.399-24.408c1.44-1.48 3.84-1.48 5.28 0l24.4 24.408c2.4 2.392 0.719 6.48-2.641 6.48z"></path>
</symbol>
<symbol id="arrow-up-red" viewBox="0 0 72 32">
<path fill="#ee144e" style="fill: var(--color1, #ee144e)" d="M60.559 32h-48.8c-3.36 0-5.040-4.088-2.64-6.48l24.399-24.408c1.44-1.48 3.84-1.48 5.28 0l24.4 24.408c2.4 2.392 0.719 6.48-2.641 6.48z"></path>
</symbol>
<symbol id="checkbox" viewBox="0 0 36 32">
<path fill="#808080" style="fill: var(--color5, #808080)" d="M30.84 0h-27.14c-2.040 0-3.7 1.536-3.7 3.428v25.144c0 1.894 1.66 3.428 3.7 3.428h27.14c2.040 0 3.7-1.534 3.7-3.428v-25.144c0-1.892-1.66-3.428-3.7-3.428zM30.84 28.572h-27.14v-25.144h27.14v25.144zM28.080 11.306l-13.3 12.228c-0.38 0.334-0.96 0.332-1.32-0.004l-7-6.538c-0.36-0.336-0.36-0.878 0-1.212l1.76-1.61c0.36-0.332 0.94-0.33 1.3 0.006l4.62 4.306 10.9-10.016c0.36-0.334 0.94-0.332 1.3 0.004l1.74 1.624c0.36 0.336 0.36 0.878 0 1.212z"></path>
</symbol>
<symbol id="device" viewBox="0 0 39 32">
<path fill="#808080" style="fill: var(--color5, #808080)" d="M36.018 0h-32.925c-1.6 0-2.898 1.326-2.898 2.96v19.737c0 1.636 1.298 2.962 2.898 2.962h14.827v1.973h-9.671c-1.084 0-1.938 0.882-1.938 1.973s0.853 1.973 1.938 1.973h23.235c1.067 0 1.938-0.882 1.938-1.973s-0.871-1.973-1.938-1.973h-9.689v-1.973h14.222c1.6 0 2.898-1.326 2.898-2.962v-19.737c0-1.634-1.298-2.96-2.898-2.96zM35.057 21.71h-31.004v-17.764h31.004v17.764z"></path>
</symbol>
<symbol id="eye" viewBox="0 0 47 32">
<path d="M21.821 7.706c-0.803 0.015-1.6 0.137-2.365 0.378 0.358 0.623 0.547 1.327 0.547 2.048 0 2.339-1.902 4.241-4.244 4.241-0.719-0.009-1.423-0.198-2.045-0.547-1.295 4.486 1.297 9.184 5.789 10.473 4.492 1.295 9.181-1.297 10.479-5.789 1.295-4.492-1.298-9.181-5.789-10.479-0.774-0.218-1.568-0.326-2.371-0.326zM43.374 15.087c-4.108-8.017-12.244-13.44-21.553-13.44-9.312 0-17.449 5.423-21.553 13.44-0.349 0.695-0.349 1.516 0 2.211 4.105 8.017 12.241 13.44 21.553 13.44 9.309 0 17.446-5.423 21.553-13.44 0.355-0.695 0.355-1.516 0-2.211zM21.821 27.101c-7.471 0-14.327-4.166-18.025-10.909 3.697-6.743 10.545-10.909 18.025-10.909 7.476 0 14.325 4.166 18.022 10.909-3.697 6.743-10.546 10.909-18.022 10.909z"></path>
</symbol>
<symbol id="list" viewBox="0 0 35 32">
<path d="M35.368 24.824v1.972c0 0.542-0.438 0.987-0.994 0.987h-2.829v2.833c0 0.542-0.438 0.987-0.977 0.987h-1.971c-0.556 0-0.994-0.445-0.994-0.987v-2.833h-2.829c-0.539 0-0.994-0.445-0.994-0.987v-1.972c0-0.542 0.455-0.985 0.994-0.985h2.829v-2.835c0-0.542 0.438-0.985 0.994-0.985h1.971c0.539 0 0.977 0.443 0.977 0.985v2.835h2.829c0.556 0 0.994 0.443 0.994 0.985zM0.994 4.121h25.617c0.556 0 0.994-0.445 0.994-0.987v-1.971c0-0.542-0.438-0.987-0.994-0.987h-25.617c-0.556 0-0.994 0.445-0.994 0.987v1.971c0 0.549 0.438 0.987 0.994 0.987zM0.994 12.008h25.617c0.556 0 0.994-0.445 0.994-0.987v-1.971c0-0.542-0.438-0.987-0.994-0.987h-25.617c-0.556 0-0.994 0.445-0.994 0.987v1.971c0 0.549 0.438 0.987 0.994 0.987zM0 24.824v1.972c0 0.542 0.438 0.987 0.994 0.987h18.661v-3.944h-18.661c-0.556 0-0.994 0.443-0.994 0.985zM0 16.936v1.972c0 0.542 0.438 0.987 0.994 0.987h22.636v-3.944h-22.636c-0.556 0-0.994 0.445-0.994 0.985z"></path>
</symbol>
<symbol id="search-btn" viewBox="0 0 32 32">
<path fill="#999" style="fill: var(--color6, #999)" d="M29.925 27.667l-5.909-6.232c-0.267-0.28-0.627-0.437-1.008-0.437h-0.965c1.637-2.205 2.608-4.981 2.608-7.997 0-7.181-5.517-13-12.325-13s-12.325 5.819-12.325 13c0 7.179 5.517 12.997 12.325 12.997 2.861 0 5.493-1.024 7.584-2.749v1.019c0 0.4 0.149 0.781 0.416 1.061l5.907 6.232c0.557 0.587 1.459 0.587 2.011 0l1.677-1.768c0.555-0.589 0.555-1.539 0.005-2.125zM12.325 20.997c-4.189 0-7.587-3.573-7.587-7.997 0-4.419 3.392-8 7.587-8 4.189 0 7.584 3.573 7.584 8 0 4.416-3.389 7.997-7.584 7.997z"></path>
</symbol>
<symbol id="status" viewBox="0 0 32 32">
<path fill="#b346bd" style="fill: var(--color7, #b346bd)" d="M16 0c-8.84 0-16 7.16-16 16s7.16 16 16 16c8.84 0 16-7.16 16-16s-7.16-16-16-16zM16 28.904c-7.115 0-12.903-5.788-12.903-12.904s5.788-12.904 12.903-12.904c7.115 0 12.904 5.788 12.904 12.904s-5.788 12.904-12.904 12.904zM10.839 14.968c1.143 0 2.065-0.924 2.065-2.065 0-1.143-0.922-2.065-2.065-2.065s-2.065 0.922-2.065 2.065c0 1.141 0.922 2.065 2.065 2.065zM21.161 14.968c1.143 0 2.065-0.924 2.065-2.065 0-1.143-0.922-2.065-2.065-2.065s-2.065 0.922-2.065 2.065c0 1.141 0.922 2.065 2.065 2.065zM21.419 19.652c-1.342 1.613-3.322 2.541-5.419 2.541s-4.077-0.922-5.419-2.541c-0.548-0.659-1.528-0.742-2.18-0.2-0.659 0.548-0.744 1.523-0.201 2.18 1.935 2.323 4.781 3.652 7.8 3.652s5.865-1.329 7.8-3.652c0.548-0.657 0.457-1.632-0.201-2.18-0.651-0.542-1.632-0.459-2.18 0.2z"></path>
</symbol>
<symbol id="user-photo" viewBox="0 0 28 32">
<path fill="#fff" style="fill: var(--color8, #fff)" d="M13.12 16.75c-1.4 0-2.64-0.293-3.8-0.996-1.18-0.645-2.060-1.524-2.7-2.695-0.7-1.172-1-2.402-1-3.809 0-1.348 0.3-2.578 1-3.75 0.64-1.172 1.52-2.051 2.7-2.754 1.16-0.644 2.4-0.996 3.8-0.996 1.36 0 2.58 0.352 3.76 0.996 1.16 0.703 2.040 1.582 2.74 2.754 0.66 1.172 1 2.402 1 3.75 0 1.406-0.34 2.637-1 3.809-0.7 1.172-1.58 2.051-2.74 2.695-1.18 0.703-2.4 0.996-3.76 0.996zM18.4 18.625c1.4 0 2.7 0.352 3.92 1.055 1.18 0.703 2.18 1.699 2.88 2.871 0.7 1.23 1.040 2.52 1.040 3.926v2.461c0 0.82-0.28 1.465-0.82 1.992-0.58 0.586-1.22 0.82-1.98 0.82h-20.62c-0.82 0-1.48-0.234-2-0.82-0.58-0.527-0.82-1.172-0.82-1.992v-2.461c0-1.406 0.36-2.695 1.060-3.926 0.7-1.172 1.64-2.168 2.86-2.871 1.18-0.703 2.52-1.055 3.94-1.055h0.98c1.36 0.645 2.76 0.937 4.28 0.937 1.46 0 2.88-0.293 4.28-0.937h1z"></path>
</symbol>
<symbol id="video" viewBox="0 0 46 32">
<path fill="#808080" style="fill: var(--color5, #808080)" d="M41.349 0.841h-0.937c-0.983 0-1.92 0.4-2.606 1.111l-7.543 7.733v-5.054c0-2.091-1.669-3.79-3.703-3.79h-22.194c-2.057 0-3.703 1.698-3.703 3.79v22.738c0 2.091 1.646 3.79 3.703 3.79h22.194c2.034 0 3.703-1.698 3.703-3.79v-5.054l7.543 7.733c0.686 0.711 1.623 1.111 2.606 1.111h0.937c2.057 0 3.703-1.698 3.703-3.79v-22.738c0-2.091-1.646-3.79-3.703-3.79z"></path>
</symbol>
<symbol id="warning" viewBox="0 0 32 32">
<path fill="#ee144e" style="fill: var(--color1, #ee144e)" d="M31.639 26.752c1.026 1.854-0.262 4.171-2.31 4.171h-26.66c-2.050 0-3.332-2.321-2.308-4.171l13.329-24.098c1.026-1.856 3.597-1.852 4.621 0l13.329 24.098zM16 21.771c-1.412 0-2.556 1.193-2.556 2.665 0 1.47 1.143 2.665 2.556 2.665s2.556-1.195 2.556-2.665c0-1.472-1.143-2.665-2.556-2.665zM13.574 12.192l0.412 7.878c0.019 0.367 0.311 0.657 0.665 0.657h2.697c0.354 0 0.646-0.29 0.666-0.657l0.412-7.878c0.021-0.399-0.282-0.734-0.666-0.734h-3.52c-0.384 0-0.687 0.335-0.666 0.734z"></path>
</symbol>
</defs>
</svg>
